<?xml version="1.0" standalone="no"?>
<!DOCTYPE svg PUBLIC "-//W3C//DTD SVG 20010904//EN"
 "http://www.w3.org/TR/2001/REC-SVG-20010904/DTD/svg10.dtd">
<svg version="1.0" xmlns="http://www.w3.org/2000/svg"
 width="443.000000pt" height="443.000000pt" viewBox="0 0 443.000000 443.000000"
 preserveAspectRatio="xMidYMid meet">
<metadata>
Created by potrace 1.14, written by Peter Selinger 2001-2017
</metadata>
<g transform="translate(0.000000,443.000000) scale(0.100000,-0.100000)"
fill="#000000" stroke="none">
<path d="M430 4411 c-88 -25 -114 -36 -168 -72 -91 -62 -170 -153 -214 -249
-49 -106 -48 -50 -48 -1878 0 -1823 -1 -1767 47 -1871 60 -128 168 -235 297
-294 105 -48 44 -47 1896 -44 l1735 2 65 24 c175 65 307 199 366 372 18 52 19
132 21 1789 3 1922 7 1792 -63 1933 -48 95 -153 199 -247 245 -136 65 -20 62
-1907 61 -1623 0 -1718 -1 -1780 -18z"/>
</g>
</svg>
